<?xml version="1.0" encoding="UTF-8"?>
<!DOCTYPE svg PUBLIC "-//W3C//DTD SVG 1.1//EN" "http://www.w3.org/Graphics/SVG/1.1/DTD/svg11.dtd">
<!-- Creator: CorelDRAW -->
<svg xmlns="http://www.w3.org/2000/svg" xml:space="preserve" width="4.1142mm" height="4.1142mm" version="1.1" style="shape-rendering:geometricPrecision; text-rendering:geometricPrecision; image-rendering:optimizeQuality; fill-rule:evenodd; clip-rule:evenodd"
viewBox="0 0 411.42 411.42"
 xmlns:xlink="http://www.w3.org/1999/xlink"
 xmlns:xodm="http://www.corel.com/coreldraw/odm/2003">
 <defs>
  <style type="text/css">
   <![CDATA[
    .str0 {stroke:#373435;stroke-width:7.62;stroke-miterlimit:22.9256}
    .fil1 {fill:#00C950}
    .fil0 {fill:#314158}
   ]]>
  </style>
 </defs>
 <g id="Camada_x0020_1">
  <metadata id="CorelCorpID_0Corel-Layer"/>
  <g id="_2045197666944">
   <rect class="fil0 str0" x="3.81" y="3.81" width="403.8" height="403.8" rx="77.13" ry="77.13"/>
   <g>
    <path class="fil1" d="M91.28 182.53c2.33,-17.47 16.43,-43.16 28.91,-55.89 38.09,-37.54 81.86,-47.85 131.21,-25.27 10.74,4.92 24.5,9.24 28.46,-7.14 6.18,-25.61 -62.61,-34.87 -79.87,-34.44 -141.18,3.46 -191.78,190.13 -74.81,267.8 62.08,41.23 146.69,28.34 194.13,-29.99 17.77,-21.84 37.77,-62.47 29.28,-90.95 -4.39,-14.73 -25.05,-16.41 -27.81,10.63 -10.91,106.75 -144.68,143.26 -210.57,54.4 -20.08,-28.3 -22.98,-55.48 -18.93,-89.15z"/>
    <path class="fil1" d="M346.59 111.34c-8.15,-7.79 -17.44,-4.74 -24.54,2.35 -21.21,21.18 -109.68,114.42 -116.13,117.16 -3.27,1.4 -12.68,-9.88 -14.99,-12.15 -3.67,-3.59 -30.73,-30.16 -34.82,-32.22 -19.13,-9.6 -32.92,10.5 -16.83,26.95 12,12.26 28.23,30.06 40.92,39.68 13.09,9.92 24.4,27.98 39.29,12.3 36.59,-38.53 80.86,-78.58 115.76,-116.96 9.01,-9.9 18.53,-16.79 15.34,-31.42 -0.69,-3.17 -1.82,-3.57 -4,-5.69z"/>
   </g>
  </g>
 </g>
</svg>
